<?xml version="1.0" standalone="no"?>
<!DOCTYPE svg PUBLIC "-//W3C//DTD SVG 20010904//EN"
 "http://www.w3.org/TR/2001/REC-SVG-20010904/DTD/svg10.dtd">
<svg version="1.0" xmlns="http://www.w3.org/2000/svg"
 width="1000.000000pt" height="1000.000000pt" viewBox="0 0 1000.000000 1000.000000"
 preserveAspectRatio="xMidYMid meet">
<metadata>
Created by potrace 1.14, written by Peter Selinger 2001-2017
</metadata>
<g transform="translate(0.000000,1000.000000) scale(0.100000,-0.100000)"
fill="#000000" stroke="none">
<path d="M1679 9696 c-2 -2 -48 -7 -102 -10 -92 -6 -135 -11 -197 -22 -14 -2
-41 -7 -60 -10 -212 -33 -500 -190 -657 -358 -119 -126 -224 -303 -277 -464
-29 -89 -62 -266 -73 -391 -10 -114 -10 -6761 0 -6871 9 -106 15 -151 28 -216
5 -28 12 -62 14 -76 13 -67 51 -173 101 -273 150 -304 397 -515 731 -624 49
-16 106 -31 128 -35 97 -14 111 -17 130 -21 11 -2 65 -7 120 -12 128 -10 6728
-11 6855 0 118 9 154 14 255 33 386 73 721 333 884 685 42 92 86 228 96 299 4
25 11 67 16 94 5 27 12 92 17 145 9 127 9 6751 -1 6861 -23 253 -59 397 -144
568 -53 109 -131 221 -211 305 -55 57 -201 174 -232 185 -8 3 -17 9 -20 13 -3
3 -48 27 -100 52 -95 45 -226 89 -310 103 -25 4 -47 8 -50 9 -3 1 -36 5 -75
10 -38 4 -83 10 -100 13 -34 6 -6759 14 -6766 8z"/>
</g>
</svg>
